<svg width="16" height="17" viewBox="0 0 16 17" fill="none" xmlns="http://www.w3.org/2000/svg">
<path d="M11.0499 12.6065H9.7341L7.90968 9.52753L7.25579 10.2802V12.6065H6.18213V11.5716V11.1183L7.25579 9.87819L8.40211 8.55252L9.38697 7.41501C9.54035 7.2354 9.66144 7.08146 9.75024 6.96172L10.2507 6.37158H10.6625L9.79868 7.35514C9.68566 7.47488 9.56457 7.60317 9.43541 7.75712L8.66043 8.65515L10.4041 11.5545C10.5091 11.7256 10.5898 11.8624 10.6625 11.9822C10.6947 12.042 10.7351 12.0848 10.7674 12.1361L11.0499 12.6065Z" fill="#728A8A"/>
<path d="M12.763 11.6826H11.8911V12.6063H12.763V11.6826Z" fill="#1BA9B0"/>
<path d="M5.70614 3.14697V6.50818L4.43066 4.67791C4.59212 4.38711 4.78586 4.12198 5.01997 3.87395L5.70614 3.14697Z" fill="#1BA9B0"/>
<path d="M5.70602 7.355V10.3741L5.01984 9.64713C3.8816 8.4412 3.60713 6.66223 4.18836 5.18262L5.70602 7.355Z" fill="#1BA9B0"/>
<path d="M7.92533 5.96936L6.18164 8.47531V3.14697L6.86782 3.87395C7.4329 4.46409 7.7881 5.19962 7.92533 5.96936Z" fill="#1BA9B0"/>
<path d="M7.99799 6.72217C8.00606 7.7827 7.62665 8.84324 6.86782 9.64719L6.18164 10.3742V9.32219L7.99799 6.72217Z" fill="#1BA9B0"/>
<path d="M3.59233 0C1.61453 0 0 1.71054 0 3.80595V16.9515H12.4077C14.3935 16.9515 16 15.2409 16 13.1455V0H3.59233ZM15.5399 13.1455C15.5399 14.9758 14.1352 16.464 12.4077 16.464H0.460141V3.80595C0.460141 1.97567 1.86478 0.487504 3.59233 0.487504H15.5399V13.1455Z" fill="#728A8A"/>
</svg>
