<svg width="240" height="56" viewBox="0 0 240 56" fill="none" xmlns="http://www.w3.org/2000/svg">
<path d="M79.5074 16.3263L77.2103 18.8681V22.8161H74.5049V7.34863H77.2103V15.2446L84.4079 7.34863H87.4707L81.3451 14.2712L87.8281 22.8161H84.6632L79.5074 16.3263Z" fill="#1BA9B0"/>
<path d="M91.0429 21.1932C89.9199 20.0034 89.3584 18.2727 89.3584 16.0554V7.34814H92.0639V15.9472C92.0639 18.9758 93.289 20.4901 95.7903 20.4901C98.2405 20.4901 99.4656 18.9758 99.4656 15.9472V7.34814H102.12V16.0554C102.12 18.2727 101.559 20.0034 100.436 21.1932C99.3125 22.383 97.7301 22.9779 95.7392 22.9779C93.6974 23.032 92.166 22.4371 91.0429 21.1932Z" fill="#1BA9B0"/>
<path d="M108.654 22.0052C107.48 21.3021 106.561 20.3827 105.846 19.1929C105.183 18.0031 104.825 16.651 104.825 15.1367C104.825 13.6224 105.183 12.2704 105.846 11.0806C106.51 9.89075 107.48 8.91727 108.654 8.26828C109.828 7.56522 111.155 7.24072 112.635 7.24072C113.809 7.24072 114.932 7.45705 115.902 7.88971C116.872 8.32237 117.74 8.97135 118.404 9.78258L116.668 11.5132C115.596 10.3234 114.32 9.7285 112.788 9.7285C111.768 9.7285 110.9 9.94483 110.083 10.4316C109.266 10.9183 108.654 11.5132 108.245 12.3785C107.786 13.1898 107.582 14.1632 107.582 15.1908C107.582 16.2184 107.786 17.1918 108.245 18.0031C108.705 18.8143 109.317 19.4633 110.083 19.95C110.9 20.4368 111.768 20.6531 112.788 20.6531C114.32 20.6531 115.647 20.0582 116.668 18.8143L118.404 20.599C117.74 21.4103 116.872 22.0592 115.902 22.4919C114.932 22.9246 113.809 23.1409 112.635 23.1409C111.155 23.0327 109.828 22.6541 108.654 22.0052Z" fill="#1BA9B0"/>
<path d="M133.971 7.34912V22.8166H131.265V16.1645H123.71V22.7625H121.005V7.34912H123.71V13.7308H131.265V7.34912H133.971Z" fill="#1BA9B0"/>
<path d="M137.9 7.34863H140.606V22.8161H137.9V7.34863Z" fill="#1BA9B0"/>
<path d="M157.503 7.34863V22.8161H155.257L147.243 12.3783V22.8161H144.537V7.34863H146.783L154.797 17.7865V7.34863H157.503Z" fill="#1BA9B0"/>
<path d="M171.39 14.9204H173.942V21.0858C173.177 21.7347 172.309 22.2215 171.339 22.546C170.318 22.8705 169.297 23.0327 168.276 23.0327C166.796 23.0327 165.469 22.7082 164.244 22.0052C163.069 21.3021 162.1 20.3827 161.436 19.1929C160.772 18.0031 160.415 16.651 160.415 15.1367C160.415 13.6224 160.772 12.2704 161.436 11.0806C162.1 9.89075 163.069 8.91727 164.244 8.26828C165.469 7.56522 166.796 7.24072 168.276 7.24072C169.501 7.24072 170.624 7.45705 171.594 7.88971C172.615 8.32237 173.432 8.91727 174.096 9.78258L172.411 11.5673C171.288 10.3775 169.961 9.78258 168.378 9.78258C167.357 9.78258 166.439 9.99891 165.622 10.4857C164.805 10.9183 164.192 11.5673 163.733 12.3785C163.274 13.1898 163.069 14.1632 163.069 15.1908C163.069 16.2184 163.274 17.1378 163.733 17.949C164.192 18.7602 164.805 19.4092 165.622 19.896C166.439 20.3827 167.306 20.599 168.327 20.599C169.45 20.599 170.471 20.3286 171.339 19.7878V14.9204H171.39Z" fill="#1BA9B0"/>
<path d="M193.498 8.75428C194.57 9.67368 195.081 10.9717 195.081 12.6482C195.081 14.2707 194.57 15.5686 193.498 16.5421C192.427 17.4615 190.997 17.9483 189.108 17.9483H185.178V22.8157H183.646V7.34814H189.108C190.997 7.34814 192.427 7.83488 193.498 8.75428ZM192.375 15.4605C193.141 14.8115 193.498 13.838 193.498 12.6482C193.498 11.4043 193.141 10.4308 192.375 9.78184C191.61 9.13286 190.487 8.75428 189.057 8.75428H185.178V16.488H189.057C190.538 16.488 191.61 16.1635 192.375 15.4605Z" fill="#1BA9B0"/>
<path d="M206.814 18.6517H198.698L196.962 22.7619H195.38L202.067 7.29443H203.598L210.286 22.7619H208.652L206.814 18.6517ZM206.253 17.3537L202.731 9.07915L199.208 17.3537H206.253Z" fill="#1BA9B0"/>
<path d="M222.587 22.8161L219.269 17.8406C218.912 17.8947 218.503 17.8947 218.095 17.8947H214.164V22.8161H212.633V7.34863H218.095C219.932 7.34863 221.413 7.83537 222.485 8.75477C223.557 9.67417 224.067 10.9721 224.067 12.6487C224.067 13.8385 223.761 14.8661 223.199 15.7314C222.638 16.5426 221.821 17.1375 220.749 17.5161L224.323 22.8161H222.587ZM221.311 15.515C222.076 14.812 222.434 13.8926 222.434 12.6487C222.434 11.4048 222.076 10.4313 221.311 9.78233C220.545 9.13335 219.422 8.75477 217.993 8.75477H214.113V16.4885H217.993C219.473 16.4885 220.545 16.164 221.311 15.515Z" fill="#1BA9B0"/>
<path d="M232.19 15.5155L229.23 18.7064V22.7625H227.698V7.34912H229.23V16.7053L237.806 7.34912H239.592L233.262 14.3257L240.001 22.7625H238.163L232.19 15.5155Z" fill="#1BA9B0"/>
<path d="M83.335 37.7847V49.2501H82.5182V43.7878H75.2696V49.2501H74.5039V37.7847H75.2696V43.0847H82.5182V37.7847H83.335Z" fill="#728A8A"/>
<path d="M95.028 48.5476C94.1602 48.0609 93.4966 47.3578 92.9861 46.4384C92.4757 45.5731 92.2715 44.5456 92.2715 43.4639C92.2715 42.3823 92.5267 41.3547 92.9861 40.4894C93.4966 39.6241 94.1602 38.921 95.028 38.3802C95.8958 37.8935 96.8657 37.623 97.8866 37.623C98.9586 37.623 99.9285 37.8935 100.745 38.3802C101.613 38.8669 102.277 39.57 102.787 40.4894C103.298 41.3547 103.502 42.3823 103.502 43.4639C103.502 44.5456 103.247 45.5731 102.787 46.4384C102.277 47.3038 101.613 48.0068 100.745 48.5476C99.8774 49.0344 98.9075 49.3048 97.8866 49.3048C96.8657 49.3589 95.8958 49.0885 95.028 48.5476ZM100.388 47.8987C101.103 47.466 101.715 46.8711 102.123 46.0599C102.532 45.3027 102.736 44.4374 102.736 43.4639C102.736 42.4904 102.532 41.6251 102.123 40.868C101.715 40.1108 101.103 39.5159 100.388 39.0292C99.6732 38.5965 98.8565 38.3802 97.9377 38.3802C97.0188 38.3802 96.2021 38.5965 95.4874 39.0292C94.7728 39.4618 94.1602 40.0567 93.7518 40.868C93.3435 41.6251 93.1393 42.4904 93.1393 43.4639C93.1393 44.4374 93.3435 45.3027 93.7518 46.0599C94.1602 46.817 94.7728 47.4119 95.4874 47.8987C96.2021 48.3313 97.0699 48.5476 97.9377 48.5476C98.8055 48.5476 99.6222 48.3313 100.388 47.8987Z" fill="#728A8A"/>
<path d="M114.42 38.5423H110.54V37.7852H119.116V38.5423H115.185V49.3047H114.42V38.5423Z" fill="#728A8A"/>
<path d="M134.742 48.4929V49.2501H127.238V37.7847H134.487V38.5418H128.004V43.0847H133.772V43.8419H128.004V48.547H134.742V48.4929Z" fill="#728A8A"/>
<path d="M143.824 37.7842H144.59V48.5465H150.818V49.3037H143.773V37.7842H143.824Z" fill="#728A8A"/>
<path d="M36.2631 41.3712H31.9448L25.9575 31.2667L23.8116 33.7367V41.3712H20.2881V37.975V36.4874L23.8116 32.4175L27.5735 28.067L30.8056 24.334C31.309 23.7445 31.7064 23.2393 31.9978 22.8464L33.6403 20.9097H34.9914L32.1567 24.1375C31.7858 24.5304 31.3885 24.9514 30.9646 25.4567L28.4213 28.4038L34.1437 37.9188C34.4881 38.4802 34.753 38.9293 34.9914 39.3222C35.0974 39.5187 35.2299 39.659 35.3358 39.8274L36.2631 41.3712Z" fill="#728A8A"/>
<path d="M41.8846 38.3403H39.0234V41.3717H41.8846V38.3403Z" fill="#1BA9B0"/>
<path d="M18.7268 10.3276V21.3583L14.541 15.3518C15.0709 14.3975 15.7067 13.5274 16.475 12.7134L18.7268 10.3276Z" fill="#1BA9B0"/>
<path d="M18.7262 24.1376V34.0455L16.4743 31.6598C12.7389 27.7022 11.8381 21.8641 13.7456 17.0083L18.7262 24.1376Z" fill="#1BA9B0"/>
<path d="M26.0095 19.5901L20.2871 27.8139V10.3276L22.539 12.7134C24.3935 14.6501 25.5591 17.0639 26.0095 19.5901Z" fill="#1BA9B0"/>
<path d="M26.2479 22.0601C26.2744 25.5405 25.0293 29.0209 22.539 31.6593L20.2871 34.0451V30.5927L26.2479 22.0601Z" fill="#1BA9B0"/>
<path d="M11.7892 0C5.2985 0 0 5.61358 0 12.4902V55.6306H40.719C47.2362 55.6306 52.5082 50.017 52.5082 43.1404V0H11.7892ZM50.9981 43.1404C50.9981 49.1469 46.3884 54.0307 40.719 54.0307H1.51007V12.4902C1.51007 6.48369 6.11977 1.59987 11.7892 1.59987H50.9981V43.1404Z" fill="#728A8A"/>
</svg>
