<svg width="33" height="30" viewBox="0 0 33 30" fill="none" xmlns="http://www.w3.org/2000/svg">
<path fill-rule="evenodd" clip-rule="evenodd" d="M0.416464 0.0577461C0.243875 0.130996 0.158279 0.210082 0.0715125 0.376418C0.00169898 0.51021 0 0.85762 0 14.9964C0 29.1353 0.00169898 29.4827 0.0715125 29.6165C0.159827 29.7858 0.245574 29.8635 0.424922 29.9368C0.631078 30.0211 3.10691 30.0211 3.31306 29.9368C3.49241 29.8635 3.57816 29.7858 3.66647 29.6165C3.73278 29.4894 3.73799 29.3812 3.73799 28.1297V26.7799H11.4594H19.1808V28.1966C19.1808 29.6051 19.1813 29.614 19.2657 29.7351C19.3913 29.915 19.5768 30.0014 19.7971 29.9826C20.0053 29.9648 20.1478 29.8754 20.2569 29.6942C20.3282 29.5758 20.333 29.4915 20.3435 28.1744L20.3547 26.7799H22.9003H25.4459L25.4567 28.1994C25.4671 29.5734 25.4699 29.6223 25.5464 29.7232C25.5898 29.7805 25.6816 29.8648 25.7502 29.9105C26.009 30.0828 26.4003 29.9689 26.5435 29.6796C26.6148 29.5354 26.619 29.4515 26.619 28.1535V26.7799H27.9405H29.262V28.1165C29.262 29.4031 29.265 29.4592 29.3421 29.615C29.3903 29.7124 29.4831 29.8163 29.5753 29.876L29.7283 29.9751L31.0527 29.9866C31.9286 29.9941 32.4244 29.9844 32.5169 29.9579C32.6978 29.906 32.8834 29.7519 32.9485 29.5994C32.9917 29.4983 33 27.145 33 15C33 4.83431 32.988 0.490263 32.9597 0.417235C32.9025 0.269369 32.7783 0.147988 32.6035 0.0690863C32.466 0.00695517 32.3351 0.000823459 31.1335 8.46821e-05C29.8656 -0.000691034 29.8081 0.00230097 29.649 0.0776193C29.5494 0.124827 29.4433 0.215549 29.3822 0.30579L29.2809 0.455577L29.262 3.6075L29.2431 6.75941L21.0043 6.7685L12.7654 6.77755L12.7543 5.42928C12.7436 4.14237 12.7395 4.07326 12.6624 3.91028C12.5466 3.66519 12.3346 3.45235 12.0885 3.33411L11.8747 3.23142L9.06303 3.22126C5.92342 3.20992 6.03775 3.20165 5.67928 3.46669C5.55533 3.55837 5.45776 3.67417 5.38111 3.82078L5.26716 4.03861L5.24828 5.39988L5.2294 6.76111L4.49313 6.76396L3.75687 6.76677L3.73799 3.59254L3.71911 0.418269L3.61021 0.278641C3.3984 0.00699225 3.35966 0.000823231 1.86899 0.00152507C0.776557 0.00204221 0.524753 0.0117942 0.416464 0.0577461ZM2.56751 14.9964V28.8485H1.86899H1.17048V14.9964V1.14438H1.86899H2.56751V14.9964ZM31.8673 14.9964V28.8485H31.1499H30.4325V14.9964V1.14438H31.1499H31.8673V14.9964ZM11.5915 5.55857V6.75908H9.02403C7.6119 6.75908 6.44376 6.76326 6.4282 6.76832C6.41265 6.77338 6.39539 6.23315 6.38992 5.5678L6.37999 4.35806H8.98574H11.5915V5.55857ZM19.1619 9.41868V10.9147H11.4594H3.75687L3.74697 9.45569C3.74154 8.65323 3.74527 7.97585 3.75528 7.95036C3.76978 7.91335 5.32557 7.90588 11.4677 7.91335L19.1619 7.92266V9.41868ZM25.4485 9.41868V10.9332H22.8999H20.3513V9.41868V7.90419H22.8999H25.4485V9.41868ZM29.262 9.41868V10.9332H27.9405H26.619V9.41868V7.90419H27.9405H29.262V9.41868ZM19.1715 16.7787L19.1811 21.4977H15.9737H12.7663L12.7547 20.1402C12.7431 18.7834 12.7431 18.7826 12.6503 18.5995C12.529 18.3602 12.3121 18.1515 12.0697 18.0411L11.8747 17.9523L9.02131 17.9519C5.82208 17.9515 5.96745 17.94 5.64149 18.2207C5.53162 18.3153 5.42306 18.4583 5.35623 18.5965L5.24836 18.8196L5.24832 20.1586L5.24828 21.4977H4.49313H3.73799V16.7941C3.73799 14.2072 3.74935 12.0795 3.76325 12.0659C3.77714 12.0523 7.24754 12.0454 11.4752 12.0505L19.1619 12.0598L19.1715 16.7787ZM25.4485 13.0756V14.1099H22.9011H20.3536L20.343 13.091C20.3371 12.5306 20.3395 12.0651 20.3481 12.0567C20.3568 12.0482 21.5079 12.0413 22.9062 12.0413H25.4485V13.0756ZM29.2527 16.7787L29.2623 21.4977H27.9407H26.619V16.7941C26.619 14.2072 26.6305 12.0793 26.6447 12.0655C26.6588 12.0517 27.2492 12.0447 27.9567 12.0501L29.2431 12.0598L29.2527 16.7787ZM25.4485 16.7418V18.2471H22.8999H20.3513V16.7418V15.2365H22.8999H25.4485V16.7418ZM11.5915 20.279V21.4982L8.99571 21.4887L6.39989 21.4792L6.38988 20.316C6.3844 19.6762 6.3881 19.1318 6.39815 19.1062C6.41257 19.0695 6.95866 19.0597 9.00398 19.0597H11.5915V20.279ZM25.4485 20.4449V21.4977H22.8999H20.3513V20.4449V19.3922H22.8999H25.4485V20.4449ZM19.1808 24.1388V25.6348H11.4594H3.73799V24.1388V22.6428H11.4594H19.1808V24.1388ZM25.4485 24.1388V25.6348H22.8999H20.3513V24.1388V22.6428H22.8999H25.4485V24.1388ZM29.262 24.1388V25.6348H27.9405H26.619V24.1388V22.6428H27.9405H29.262V24.1388Z" fill="#646465"/>
</svg>
