<svg width="43" height="22" viewBox="0 0 43 22" fill="none" xmlns="http://www.w3.org/2000/svg">
<path fill-rule="evenodd" clip-rule="evenodd" d="M4.63651 0.0946129C4.97379 0.300613 4.95444 0.157182 4.9791 2.63409L5.00119 4.85357L5.35747 4.59888C6.44894 3.81857 7.90438 3.44139 9.824 3.44139C12.6185 3.44139 14.5718 4.3087 15.5071 5.96479C15.6126 6.15148 15.7376 6.42562 15.785 6.574L15.8712 6.8438H17.2915H18.7118L18.7293 6.0153C18.745 5.28011 18.7578 5.16275 18.8437 4.97336C19.0021 4.62384 19.1855 4.42982 19.5072 4.27145L19.802 4.12629H21.4821H23.1621L23.4051 4.24074C23.5388 4.30371 23.7095 4.40706 23.7844 4.47047C23.9543 4.61416 24.1812 5.03739 24.2218 5.28621L24.2525 5.474L31.3738 5.47436C35.6908 5.47453 38.643 5.49159 38.8706 5.51757C39.7623 5.61947 40.4986 6.28223 40.6778 7.14423C40.7087 7.29257 40.7265 8.04026 40.7265 9.18387V10.9894L41.1874 11.0044C41.6848 11.0207 41.7877 11.062 41.9831 11.3237C42.0739 11.4453 42.0742 11.4642 42.0742 16.4987C42.0742 21.5332 42.0739 21.5521 41.9831 21.6737C41.933 21.7408 41.8372 21.8367 41.7701 21.8868C41.6551 21.9727 41.5799 21.9787 40.4472 21.9913C39.2554 22.0046 39.2447 22.0039 39.048 21.8997C38.9389 21.8419 38.8133 21.7323 38.7688 21.656C38.7141 21.5624 38.5956 20.9614 38.4035 19.8035C38.2472 18.8607 38.109 18.0447 38.0964 17.99L38.0736 17.8906H21.483H4.8924L4.8696 17.99C4.85705 18.0447 4.71883 18.8607 4.5625 19.8035C4.37104 20.9575 4.2516 21.5638 4.19681 21.6593C4.15134 21.7386 4.0289 21.845 3.91927 21.9006C3.73134 21.9958 3.67668 22 2.6123 22C1.90067 22 1.44753 21.982 1.35128 21.9498C1.14537 21.881 0.965 21.7031 0.911003 21.5158C0.880692 21.4107 0.870132 17.9221 0.878834 10.9012L0.891785 0.443161L0.982899 0.321116C1.033 0.253996 1.12889 0.15811 1.19597 0.108001C1.31306 0.0205108 1.38071 0.0164016 2.89444 0.00517802C4.46944 -0.00653157 4.47112 -0.0064431 4.63651 0.0946129ZM2.23949 10.9974V20.6302H2.63369H3.02784L3.05285 20.5087C3.06663 20.4418 3.19747 19.6674 3.3436 18.7876L3.60929 17.188V9.27631V1.3646H2.92439H2.23949V10.9974ZM8.18903 4.94018C6.82935 5.1791 5.90177 5.70117 5.35814 6.53348C5.27117 6.66661 5.20003 6.79087 5.20003 6.80965C5.20003 6.82843 7.27917 6.8438 9.82033 6.8438H14.4407L14.3237 6.62883C13.8667 5.78928 12.8118 5.1779 11.4239 4.94826C10.6693 4.82339 10.5956 4.8188 9.59665 4.83435C8.94971 4.84442 8.57253 4.87279 8.18903 4.94018ZM20.0911 8.25779V10.9974H21.483H22.8749V8.25779V5.51819H21.483H20.0911V8.25779ZM24.2447 8.94269V10.9974H31.8007H39.3567V9.23079C39.3567 7.24551 39.3502 7.19779 39.0535 6.99616L38.8943 6.88799H31.5695H24.2447V8.94269ZM4.9791 9.6276V10.9974H11.8502H18.7213V9.6276V8.25779H11.8502H4.9791V9.6276ZM4.9791 14.4219V16.4766H22.8528H40.7265V14.4219V12.3672H22.8528H4.9791V14.4219ZM39.4893 17.9377C39.4893 17.9879 39.8712 20.3042 39.9132 20.5087L39.9382 20.6302H40.3323H40.7265V19.2604V17.8906H40.1079C39.6994 17.8906 39.4893 17.9066 39.4893 17.9377Z" fill="#646465"/>
</svg>
