<svg width="36" height="26" viewBox="0 0 36 26" fill="none" xmlns="http://www.w3.org/2000/svg">
<path fill-rule="evenodd" clip-rule="evenodd" d="M14.7336 0.0669673C12.2816 0.286485 9.07236 0.970338 6.56266 1.80835C5.67307 2.10535 4.87806 2.34845 4.79582 2.34845C4.69816 2.34845 4.6465 2.06121 4.6465 1.51834C4.6465 0.600214 4.51531 0.372 3.98744 0.372C3.22326 0.372 3.23302 0.300584 3.23302 5.88459V10.983L2.61611 11.2077C1.50588 11.612 0.605241 12.5409 0.21011 13.6893C-0.0655178 14.4906 -0.0720713 25.3586 0.202914 25.7442C0.370733 25.9796 0.555127 26 2.50945 26C4.0806 26 4.67708 25.9555 4.8007 25.8287C4.90285 25.7241 4.98535 25.2247 5.01311 24.544L5.05834 23.4306H18.0103H30.9622L31.0075 24.544C31.0352 25.2247 31.1177 25.7241 31.2199 25.8287C31.3435 25.9555 31.94 26 33.5111 26C35.4655 26 35.6498 25.9796 35.8177 25.7442C35.9684 25.5328 36 24.512 36 19.8527C36 14.4997 35.9869 14.1809 35.7374 13.4974C35.5902 13.094 35.247 12.5369 34.9562 12.2298C34.4452 11.6897 33.3227 11.0487 32.8839 11.0462C32.6736 11.045 32.6591 10.7099 32.6591 5.86654C32.6591 2.01469 32.6196 0.647781 32.5049 0.530116C32.2865 0.30625 31.6865 0.334052 31.4474 0.579C31.3067 0.723413 31.2456 1.03701 31.2456 1.614V2.44174L29.8 1.9384C27.1696 1.02238 24.354 0.39374 21.6267 0.113479C20.4061 -0.0119594 15.9516 -0.0420011 14.7336 0.0669673ZM22.572 1.75328C25.1351 2.10284 28.8835 3.0974 31.0207 3.9951C31.2268 4.08167 31.2456 4.37906 31.2456 7.56721V11.0448H30.1533H29.0611V8.50484C29.0611 6.41902 29.0254 5.91226 28.861 5.67192C28.6619 5.3802 28.6454 5.37901 24.7649 5.37901C21.6852 5.37901 20.839 5.41564 20.7272 5.55373C20.6376 5.66454 20.5731 6.689 20.5509 8.3537L20.516 10.979L17.9782 11.0147L15.4403 11.0504V8.45569C15.4403 6.22612 15.4104 5.82701 15.2277 5.62001C15.0305 5.39667 14.7309 5.37901 11.1414 5.37901C8.29995 5.37901 7.22674 5.42118 7.11366 5.53713C7.0038 5.64979 6.95946 6.46527 6.95946 8.37004V11.0448H5.86723H4.775V7.56721C4.775 4.37906 4.79376 4.08167 4.99987 3.9951C6.03685 3.55962 8.83168 2.68274 10.2139 2.35913C11.754 1.99875 13.9702 1.65116 15.6331 1.50925C16.9028 1.40094 21.0606 1.5472 22.572 1.75328ZM14.0269 8.93663V11.0448H11.2641H8.50144V8.93663V6.82841H11.2641H14.0269V8.93663ZM27.5191 8.93663V11.0448H24.7564H21.9937V8.93663V6.82841H24.7564H27.5191V8.93663ZM33.1237 12.7463C33.4146 12.8818 33.8194 13.2167 34.0232 13.4905L34.3938 13.9886L34.4312 17.9848L34.4687 21.9812H17.9444H1.41992L1.45911 18.0512L1.4983 14.1214L1.84113 13.5904C2.04172 13.2799 2.41513 12.9422 2.74062 12.777L3.29727 12.4945L17.946 12.4973C31.9756 12.4999 32.6172 12.5104 33.1237 12.7463ZM6.98812 18.3652C6.67972 18.5866 6.62383 18.9491 6.83546 19.3546C6.96538 19.6035 7.22507 19.6095 18.0103 19.6095C28.7955 19.6095 29.0552 19.6035 29.1851 19.3546C29.3967 18.9491 29.3409 18.5866 29.0325 18.3652C28.7796 18.1835 27.5198 18.1601 18.0103 18.1601C8.5008 18.1601 7.241 18.1835 6.98812 18.3652ZM3.49002 23.9577V24.4847H2.46204H1.43405V23.9577V23.4306H2.46204H3.49002V23.9577ZM34.5865 23.9577V24.4847H33.5585H32.5306V23.9577V23.4306H33.5585H34.5865V23.9577Z" fill="#646465"/>
</svg>
