<svg width="23" height="22" viewBox="0 0 23 22" fill="none" xmlns="http://www.w3.org/2000/svg">
<path fill-rule="evenodd" clip-rule="evenodd" d="M1.23245 0.0593332C1.0744 0.129548 0.931046 0.280894 0.870069 0.441907C0.838056 0.526389 0.824219 3.71456 0.824219 11.01C0.824219 21.3695 0.824949 21.4587 0.910161 21.6347C0.96495 21.7479 1.05669 21.8463 1.16309 21.9062L1.33008 22H11.8217C22.169 22 22.3156 21.9988 22.479 21.9155C22.5924 21.8576 22.6731 21.7721 22.7351 21.6441L22.8256 21.4572V10.9993V0.541429L22.7351 0.354547C22.6731 0.226535 22.5924 0.141065 22.479 0.0831823C22.3156 -0.000182159 22.1709 -0.00129941 11.8374 0.000333501C3.20311 0.00170859 1.33872 0.0121077 1.23245 0.0593332ZM7.74261 7.51865V13.7495H4.92798H2.11336V7.51865V1.2878H4.92798H7.74261V7.51865ZM21.5364 4.10242V6.91705H15.2841H9.03175V4.10242V1.2878H15.2841H21.5364V4.10242ZM14.618 10.9993V13.7925H11.8249H9.03175V10.9993V8.20619H11.8249H14.618V10.9993ZM21.5364 14.4585V20.7109H18.7218H15.9072V14.4585V8.20619H18.7218H21.5364V14.4585ZM14.618 17.8962V20.7109H8.36569H2.11336V17.8962V15.0816H8.36569H14.618V17.8962Z" fill="#646465"/>
</svg>
