<svg width="42" height="28" viewBox="0 0 42 28" fill="none" xmlns="http://www.w3.org/2000/svg">
<path d="M3.31391 2.64997L1.53505 4.42883V9.60273V14.7677H0.767527H0V19.3729V23.9776H1.53505H3.07011L3.08837 25.5398L3.11556 27.0927L5.39095 27.1199L7.67527 27.1382L7.69353 25.5853L7.72072 24.0231H20.8128H33.9054L33.9326 25.5853L33.9508 27.1382L36.2352 27.1199L38.5106 27.0927L38.5377 25.5398L38.556 23.9776H40.0911H41.6257V19.3724V14.7677H40.8582H40.0906V9.59381V4.42883L38.3029 2.64104L36.524 0.862183H20.8128H5.1017L3.31391 2.64997ZM37.2193 3.72459L38.5556 5.05194V9.90982V14.7677H37.0205H35.4855V13.4854V12.1941L34.4741 11.1828L33.4539 10.1625H28.4877H23.5215L22.5556 11.1289L21.5804 12.1041V13.4314V14.7677H20.8128H20.0453V13.4404V12.1041L19.079 11.1378L18.1038 10.1625H13.138H8.1718L7.16047 11.1739L6.14021 12.1941V13.4765V14.7677H4.60516H3.07011V9.90982V5.05194L4.40638 3.72459L5.75199 2.39724H20.8128H35.8737L37.2193 3.72459ZM17.9415 12.2574L18.5103 12.8172V13.7925V14.7677H13.0926H7.67484V13.8014V12.8351L8.23466 12.2663L8.79449 11.6976H13.0836H17.3728L17.9415 12.2574ZM33.3817 12.2574L33.9504 12.8172V13.7925V14.7677H28.5331H23.1154V13.8014V12.8351L23.6752 12.2663L24.2351 11.6976H28.5242H32.8134L33.3817 12.2574ZM40.0906 19.3729V22.443H20.8128H1.53505V19.3729V16.3028H20.8128H40.0906V19.3729ZM6.14021 24.7451V25.5127H5.37269H4.60516V24.8084C4.60516 24.4202 4.63234 24.0681 4.66845 24.0409C4.69563 24.0048 5.04775 23.9776 5.43598 23.9776H6.14021V24.7451ZM37.0027 24.7634L37.0299 25.5127H36.2534H35.4859V24.7451V23.9687L36.2352 23.9959L36.9755 24.0231L37.0027 24.7634Z" fill="#646465"/>
</svg>
