<svg width="27" height="22" viewBox="0 0 27 22" fill="none" xmlns="http://www.w3.org/2000/svg">
<path fill-rule="evenodd" clip-rule="evenodd" d="M2.97423 0.334885C2.8987 0.51902 2.82896 2.78576 2.81897 5.37196L2.80102 10.0741L2.41873 10.7135C2.20855 11.0651 1.99166 11.6365 1.93673 11.9834C1.84296 12.5767 1.80691 12.614 1.32959 12.614C1.0506 12.614 0.637256 12.7525 0.411158 12.9216L0 13.2291V16.2304C0 18.3669 0.0539889 19.283 0.187245 19.4097C0.290229 19.5076 0.746638 19.5877 1.20149 19.5877H2.02848V20.5238C2.02848 21.9766 2.0909 22.0159 4.37092 21.9974C5.77244 21.9859 6.3231 21.9291 6.41844 21.7862C6.49006 21.6788 6.54982 21.1402 6.55122 20.5893L6.55356 19.5877H13.4972H20.4409V20.6083C20.4409 21.3598 20.5063 21.6803 20.6888 21.8243C21.0018 22.0714 24.4364 22.0466 24.7552 21.7951C24.8948 21.6847 24.966 21.2844 24.966 20.6083V19.5877H25.793C26.2478 19.5877 26.7042 19.5076 26.8072 19.4097C27.0166 19.2106 27.0792 13.4092 26.8751 13.1185C26.6816 12.843 26.1032 12.614 25.6004 12.614C25.1833 12.614 25.1215 12.5617 25.1186 12.206C25.1148 11.759 24.611 10.6049 24.2574 10.2332C24.0748 10.0415 24.0265 9.09278 23.9929 5.03737L23.9517 0.0762653L13.5315 0.0381327L3.11154 0L2.97423 0.334885ZM22.8155 5.05948C22.8396 7.18808 22.8378 8.95019 22.8114 8.97527C22.785 9.00035 22.5567 8.94663 22.3043 8.85598L21.8452 8.69128V7.26969C21.8452 6.36177 21.7775 5.7837 21.658 5.67004C21.3946 5.41959 16.0544 5.41959 15.791 5.67004C15.6796 5.77598 15.6037 6.2867 15.6037 6.93124V8.01439H13.4972H11.3907V6.93124C11.3907 6.2867 11.3149 5.77598 11.2035 5.67004C10.9401 5.41959 5.59986 5.41959 5.33647 5.67004C5.21664 5.784 5.14923 6.36519 5.14923 7.28482C5.14923 8.52584 5.11209 8.73179 4.87616 8.79633C4.72606 8.83743 4.48014 8.91904 4.33003 8.97794C4.07398 9.0781 4.05697 8.83862 4.05697 5.13693V1.18909H13.4142H22.7713L22.8155 5.05948ZM20.6806 7.49596L20.6862 8.33221L20.2124 8.25179C19.9519 8.20742 19.0893 8.12641 18.2954 8.07151L16.852 7.9718V7.35011C16.852 7.00825 16.8812 6.70066 16.9169 6.66669C16.9527 6.63271 17.8129 6.61713 18.8284 6.63226L20.6749 6.65957L20.6806 7.49596ZM10.1424 7.32919V7.97922L8.77709 8.07952C8.02624 8.13457 7.18364 8.21662 6.90465 8.26188L6.39753 8.34423V7.51154V6.679H8.26997H10.1424V7.32919ZM19.8158 9.37396C21.4699 9.59385 22.4998 9.99773 23.1491 10.681C23.6052 11.1611 24.0252 12.0308 24.0288 12.5028C24.0293 12.5639 19.316 12.614 13.5548 12.614H3.07986L3.16958 12.0886C3.48213 10.2568 5.26922 9.42292 9.35911 9.20036C11.9557 9.0591 18.2312 9.16326 19.8158 9.37396ZM25.8075 16.1009L25.7909 18.3265L13.5195 18.3645L1.2483 18.4025V16.1009V13.7993L13.5362 13.8373L25.8242 13.8752L25.8075 16.1009ZM5.30527 20.107V20.7747H4.29102H3.27678V20.206C3.27678 19.8931 3.32359 19.5926 3.38086 19.5383C3.43797 19.4839 3.89438 19.4393 4.3951 19.4393H5.30527V20.107ZM23.6875 20.1441L23.7356 20.7747H22.7123H21.6892V20.0999V19.4253L22.6644 19.4693L23.6396 19.5135L23.6875 20.1441Z" fill="#646465"/>
</svg>
